<?xml version="1.0" encoding="UTF-8" standalone="no"?>
<!-- Created with Inkscape (http://www.inkscape.org/) -->

<svg
   width="297mm"
   height="210mm"
   viewBox="0 0 297 210"
   version="1.1"
   id="svg1"
   xml:space="preserve"
   sodipodi:docname="stacked-peaks.svg"
   inkscape:version="1.4 (e7c3feb1, 2024-10-09)"
   xmlns:inkscape="http://www.inkscape.org/namespaces/inkscape"
   xmlns:sodipodi="http://sodipodi.sourceforge.net/DTD/sodipodi-0.dtd"
   xmlns:xlink="http://www.w3.org/1999/xlink"
   xmlns="http://www.w3.org/2000/svg"
   xmlns:svg="http://www.w3.org/2000/svg"><sodipodi:namedview
     id="namedview1"
     pagecolor="#ffffff"
     bordercolor="#000000"
     borderopacity="0.25"
     inkscape:showpageshadow="2"
     inkscape:pageopacity="0.0"
     inkscape:pagecheckerboard="0"
     inkscape:deskcolor="#d1d1d1"
     inkscape:document-units="mm"
     inkscape:zoom="0.31950138"
     inkscape:cx="-223.7862"
     inkscape:cy="774.64454"
     inkscape:window-width="1680"
     inkscape:window-height="1050"
     inkscape:window-x="1366"
     inkscape:window-y="0"
     inkscape:window-maximized="0"
     inkscape:current-layer="svg1" /><defs
     id="defs1"><linearGradient
       id="linearGradient5"><stop
         style="stop-color:#9e65b0;stop-opacity:1;"
         offset="0"
         id="stop5" /><stop
         style="stop-color:#9e65b0;stop-opacity:0;"
         offset="1"
         id="stop6" /></linearGradient><linearGradient
       xlink:href="#linearGradient5"
       id="linearGradient6"
       x1="-0.18296514"
       y1="10.749203"
       x2="-1.6448801"
       y2="8.8477058"
       gradientUnits="userSpaceOnUse" /><filter
       inkscape:collect="always"
       style="color-interpolation-filters:sRGB"
       id="filter1"
       x="-0.023858685"
       y="-0.027935497"
       width="1.0477174"
       height="1.055871"><feGaussianBlur
         inkscape:collect="always"
         stdDeviation="3.7822245"
         id="feGaussianBlur1" /></filter></defs><g
     id="layer1"
     style="mix-blend-mode:normal;filter:url(#filter1)"
     transform="matrix(0.94760739,0,0,1.1461901,21.596938,-0.47849437)"><g
       id="g1"
       transform="matrix(1.5770978,-0.00643491,0.00188424,2.1012734,-26.835236,-0.09983888)"><g
         id="g15"><path
           style="opacity:1;fill:#d3b8b5;fill-opacity:1;stroke-width:0.264583"
           d="M -0.19972338,51.861502 24.475776,81.601506 17.575657,79.955926 -0.13314892,59.251267 Z"
           id="path12" /><path
           style="opacity:1;fill:#daa29c;fill-opacity:1;stroke-width:0.264583"
           d="m -0.23477141,64.420559 11.54443941,13.554804 6.206511,1.8749 C 12.062011,73.278524 6.1683495,66.217634 -0.1216303,59.22799 Z"
           id="path13" /><path
           style="opacity:1;fill:#db847b;fill-opacity:1;stroke-width:0.271093"
           d="m -0.17142174,64.540287 0.13196239,9.380174 1.62753625,2.103965 9.8971801,1.972467 z"
           id="path14" /><path
           style="opacity:1;fill:#e16961;fill-opacity:1;stroke-width:0.280308"
           d="m -0.0401878,73.90536 0.04374874,1.926743 1.68432656,0.227894 z"
           id="path15" /><path
           style="opacity:1;fill:#d0c3bb;fill-opacity:1;stroke-width:0.264583"
           d="m 46.903562,28.939582 4.768062,-13.20545 1.224444,-8.265011 0.122447,-7.65278791 17.203464,0.12244461 -9.305789,9.5506791 z"
           id="path17" /></g><g
         id="g72"><g
           id="g8"><g
             id="g19"><path
               style="fill:#b283c0;fill-opacity:1;stroke-width:0.264583"
               d="M -0.69293725,11.3898 0,-0.09969867 H 53.139392 C 53.006304,4.0208682 53.100816,8.3885114 52.42505,11.423722 Z"
               id="path1" /><path
               style="fill:url(#linearGradient6);fill-opacity:1;stroke-width:0.264583"
               d="M -0.14348476,10.761357 0,21.235745 49.932698,21.594456 c 1.261343,-3.667766 2.010939,-6.902753 2.52469,-10.196723 z"
               id="path2" /><path
               style="fill:#ac64b8;fill-opacity:1;stroke-width:0.264583"
               d="M -0.29288774,21.087918 0.07322194,33.974979 43.640274,34.194646 c 1.311233,-1.724417 2.315049,-3.448835 3.209013,-5.173252 1.145235,-2.531579 2.220851,-5.422444 3.088075,-7.815017 z"
               id="path3" /><path
               style="fill:#7d489a;fill-opacity:1;stroke-width:0.264583"
               d="m -0.14131398,33.821145 0.04710466,5.511247 8.00779222,1.413139 29.9585631,0.659466 c 2.712453,-2.322652 4.267244,-4.761069 5.746768,-7.207014 z"
               id="path4" /><path
               style="fill:#ccb393;fill-opacity:1;stroke-width:0.264583"
               d="M -0.29692514,39.19412 8.6933064,40.668853 38.24065,41.345179 C 34.186995,44.874789 31.099737,47.85089 24.229092,48.755108 16.912746,50.436523 9.767283,49.554696 2.6971738,47.54256 l -3.11286901,-1.222238 -0.27836277,-2.974971 z"
               id="path5" /></g></g><path
           style="opacity:1;fill:#d0c3bb;fill-opacity:1;stroke-width:0.264583"
           d="M -0.06390469,46.526886 -0.14912464,52.268185 24.531002,81.943988 41.680336,38.697844 69.342957,70.237704 69.492081,55.101553 46.982607,28.784701 c -2.338771,4.298545 -5.941447,8.59709 -9.328637,12.895635 -4.347284,4.324308 -9.46755,6.916155 -21.565273,7.779133 C 11.165364,48.79773 5.7785964,48.792887 -0.06390469,46.526886 Z"
           id="path16" /></g><g
         id="g9"><path
           style="opacity:1;fill:#c4cb8e;fill-opacity:1;stroke-width:0.264583"
           d="M 69.499284,55.165224 70.588016,47.629543 72.463342,37.805034 56.109229,16.088192 46.875433,28.868929 Z"
           id="path18" /><path
           style="opacity:1;fill:#acc45d;fill-opacity:1;stroke-width:0.264583"
           d="M 72.365573,37.805333 77.152086,25.392853 62.751985,7.707096 c -1.278538,0.4042465 -4.74452,5.54901 -6.693003,8.356114 z"
           id="path19" /><path
           style="fill:#a6b855;fill-opacity:1;stroke-width:0.264583"
           d="M 62.559731,7.6140312 72.800826,-2.6270634 83.487185,14.24848 77.075368,25.380104 Z"
           id="path6" /><path
           style="fill:#8d8e50;fill-opacity:1;stroke-width:0.264583"
           d="M 72.736529,-2.6449647 83.426595,14.271789 92.794179,3.7470334 85.300112,-10.469652 Z"
           id="path7" /><path
           style="fill:#7e7647;fill-opacity:1;stroke-width:0.264583"
           d="m 85.237613,-10.375257 7.509163,14.0438562 6.018797,-7.2798767 -4.87236,-10.7765105 z"
           id="path8" /></g><g
         id="g25"><path
           style="opacity:1;fill:#c3d7de;fill-opacity:1;stroke-width:0.264583"
           d="m 137.65018,-0.85693875 c 2.04045,4.32715895 5.4958,7.41100285 8.58709,10.82743735 l 9.86136,7.2036884 c 4.07976,2.604845 8.15952,5.056926 12.23928,5.804915 l 14.83265,3.801886 14.89131,7.668065 8.32271,8.882219 4.57145,5.341526 -0.54417,-49.848741 z"
           id="path25" /><path
           style="fill:#a4d5d9;fill-opacity:1;stroke-width:0.22407"
           d="m 149.98342,-0.22275429 c 1.68581,3.75632679 4.5406,6.43335489 7.09461,9.39909899 l 8.1474,6.2533893 c 3.37068,2.261217 6.74136,4.389824 10.11203,5.039139 l 12.25466,3.300347 12.30312,6.656506 6.87618,7.71049 3.77691,4.63688 -0.44959,-43.27277177 z"
           id="path25-4" /><path
           style="fill:#55c3c0;fill-opacity:1;stroke-width:0.188819"
           d="m 160.94157,-1.1061825 c 1.396,3.2211709 3.76001,5.5168095 5.87495,8.0600309 l 6.74675,5.3624836 c 2.79121,1.939067 5.58242,3.764416 8.37363,4.321225 l 10.14791,2.830154 10.18804,5.708169 5.69407,6.611995 3.12761,3.976274 -0.3723,-37.1078011 z"
           id="path25-4-1" /></g><g
         id="g71"><g
           id="g26"><path
             style="fill:#ea4e49;fill-opacity:1;stroke-width:0.264583"
             d="m 70.125457,49.833423 c 0.48452,-2.814564 0.546444,-5.522038 1.43214,-8.416837 l 26.071892,0.924706 c -9.09969,2.61158 -18.168625,5.941281 -27.504032,7.492131 z"
             id="path9" /><path
             style="fill:#e8634d;fill-opacity:1;stroke-width:0.266595"
             d="m 71.511863,41.456391 c 0.403324,-2.623309 1.11736,-5.212095 2.22046,-7.757651 l 49.437877,1.392398 -25.731205,7.293519 z"
             id="path10" /><path
             style="fill:#e8776b;fill-opacity:1;stroke-width:0.264583"
             d="m 73.596105,33.708662 1.647674,-3.775919 86.296921,0.137309 -4.27742,4.599754 -18.10348,0.686531 -5.519,-1.14731 -7.08523,0.276932 -3.72706,0.639989 C 106.36222,34.92595 89.98197,34.391221 73.596105,33.708662 Z"
             id="path11" /><path
             style="fill:#e38e85;fill-opacity:1;stroke-width:0.268484"
             d="m 75.080351,30.113312 c 1.060701,-2.965285 2.293783,-5.909022 3.969766,-8.797397 l 85.522563,0.444314 3.8445,1.24969 -7.03758,7.281118 z"
             id="path20" /><path
             style="fill:#e4b3ac;fill-opacity:1;stroke-width:0.273741"
             d="m 78.73221,21.67845 3.237457,-4.940106 74.392643,0.663596 8.54693,4.633037 z"
             id="path21" /><path
             style="fill:#ddc3c3;fill-opacity:1;stroke-width:0.280008"
             d="m 81.897707,16.843878 c 1.314999,-2.810669 3.153942,-5.342188 5.710331,-7.7649227 h 57.965642 l 10.92534,8.4119457 z"
             id="path22" /><path
             style="fill:#e7958a;fill-opacity:1;stroke-width:0.270039"
             d="m 87.472334,9.1721183 5.867458,-6.3226919 46.197798,-0.4215127 5.9349,6.7442046 z"
             id="path23" /><path
             style="fill:#ef7d73;fill-opacity:1;stroke-width:0.270403"
             d="m 93.244915,2.8335359 3.26819,-3.68988932 h 41.279745 l 1.81007,3.37361302 z"
             id="path24" /></g><path
           style="opacity:1;fill:#f06e56;fill-opacity:1;stroke-width:0.264583"
           d="m 148.48707,43.349885 8.85363,-8.714744 -18.23649,0.586605 z"
           id="path33" /></g><g
         id="g70"><path
           style="opacity:1;fill:#34a9a6;fill-opacity:1;stroke-width:0.264583"
           d="m 95.319952,52.614009 7.123688,4.773232 5.22073,-0.876897 1.75831,-6.065984 z"
           id="path34" /><g
           id="g38"><path
             style="opacity:1;fill:#00837b;fill-opacity:1;stroke-width:0.264583"
             d="m 68.540623,69.294578 4.688166,5.613178 4.197416,-5.295205 z"
             id="path26" /><path
             style="opacity:1;fill:#139590;fill-opacity:1;stroke-width:0.264583"
             d="m 69.353176,69.393281 -0.01015,-6.361689 15.379155,-2.249996 -7.297047,8.846865 z"
             id="path27" /><path
             style="opacity:1;fill:#33aaa6;fill-opacity:1;stroke-width:0.266446"
             d="m 69.355568,63.029418 0.11574,-4.584317 20.756137,-4.741046 -5.594126,7.170342 z"
             id="path28" /><path
             style="opacity:1;fill:#55b5b7;fill-opacity:1;stroke-width:0.264583"
             d="m 69.372648,58.493544 c 0.003,-1.82371 -0.02824,-3.64056 0.432499,-5.555812 l 42.730783,-9.082455 -3.20049,6.660467 -13.839924,2.115669 -3.027487,-2.202169 -2.42622,3.397557 c -6.948798,1.627413 -13.720363,3.46286 -20.669161,4.666743 z"
             id="path29" /><path
             style="opacity:1;fill:#95c8ce;fill-opacity:1;stroke-width:0.264583"
             d="m 69.788803,53.088459 0.215226,-3.494576 C 88.772154,44.564415 107.54028,36.939028 126.3084,34.50548 l -8.17621,3.905923 c -2.92775,2.231159 -4.09213,3.534744 -5.62985,5.546787 z"
             id="path30" /><path
             style="opacity:1;fill:#1e39b2;fill-opacity:1;stroke-width:0.264583"
             d="m 112.76416,43.510385 14.11674,-2.379554 10.62749,2.596028 5.11094,5.354309 5.84106,-5.759939 c -1.58674,-2.133453 -3.17291,-4.267342 -5.59769,-5.75994 -1.20815,-0.984142 -2.54592,-1.709034 -3.90365,-2.394012 l -5.6692,-1.175526 -6.82495,0.451729 -8.83235,4.010196 c -1.82616,1.546913 -3.79595,2.9959 -4.86839,5.056709 z"
             id="path31" /><path
             style="opacity:1;fill:#698bdd;fill-opacity:1;stroke-width:0.264583"
             d="m 106.88399,60.545736 4.37153,3.642945 c 1.04818,-9.777195 5.30633,-17.61773 15.71102,-23.115105 l -14.21227,2.384608 c -3.17458,5.369004 -5.10418,11.11643 -5.87028,17.087552 z"
             id="path32" /><path
             style="opacity:1;fill:#55b5b7;fill-opacity:1;stroke-width:0.264583"
             d="m 102.43962,57.381306 4.44281,3.205411 0.76519,-4.087156 z"
             id="path35" /><path
             style="opacity:1;fill:#8cabe0;fill-opacity:1;stroke-width:0.264583"
             d="m 111.06644,64.112867 6.89682,4.855361 c 0.58089,-5.856209 2.51745,-11.557485 8.22101,-16.828246 l -11.61367,0.455093 c -1.26624,1.852979 -1.68135,3.705957 -2.45585,5.558936 z"
             id="path36" /><path
             style="opacity:1;fill:#3b5ccf;fill-opacity:1;stroke-width:0.264583"
             d="m 114.38738,52.623031 11.55965,-0.386933 5.12688,-0.532033 4.01444,1.983036 1.42939,2.205306 6.43893,-7.044034 -5.49835,-5.221558 -10.78578,-2.611806 c -8.69126,4.842255 -9.80872,8.172694 -12.28516,11.608022 z"
             id="path37" /><path
             style="opacity:1;fill:#6a8bdb;fill-opacity:1;stroke-width:0.264583"
             d="m 117.50301,68.525908 3.9635,2.895245 c 1.16072,-2.208183 3.40174,-4.425854 4.7552,-6.058758 l 4.24377,-2.511945 6.14297,-7.226316 -1.51852,-2.302851 -4.13398,-1.751685 -5.11492,0.700675 c -2.39545,2.055353 -4.02829,4.492006 -5.8647,6.826879 z"
             id="path38" /></g></g><g
         id="g44"><path
           style="opacity:1;fill:#dab9db;fill-opacity:1;stroke-width:0.264583"
           d="m 80.911052,101.26721 c 3.2995,0.14465 19.849568,-0.12807 21.642308,0.5547 L 182.05292,26.325089 168.16106,22.852122 C 155.0526,36.124162 92.390202,86.976853 80.911052,101.26721 Z"
           id="path39" /><path
           style="opacity:1;fill:#d8addb;fill-opacity:1;stroke-width:0.256953"
           d="m 89.342055,101.97947 17.451075,0.36829 91.3099,-68.008721 -16.12181,-8.136159 z"
           id="path40" /><path
           style="opacity:1;fill:#d499d5;fill-opacity:1;stroke-width:0.264583"
           d="m 102.37086,101.17119 c 0.76613,1.98548 4.65156,-0.46924 5.83068,1.33925 l 42.96347,-30.956797 3.08845,-0.173109 50.94961,-29.75253 -7.21372,-7.386409 z"
           id="path41" /><path
           style="opacity:1;fill:#cb86ce;fill-opacity:1;stroke-width:0.264583"
           d="M 105.63187,103.07848 121.00322,102.76684 157.71899,74.451201 212.2288,49.964734 200.95939,36.188733 Z"
           id="path42" /><path
           style="opacity:1;fill:#c677cc;fill-opacity:1;stroke-width:0.264583"
           d="m 121.13538,102.0988 11.37579,0.13356 8.73717,-1.69294 30.8323,-18.573433 43.73916,-20.012165 -4.07434,-12.462663 c -14.93481,1.30553 -30.45646,3.234866 -90.61008,52.607641 z"
           id="path43" /><path
           style="opacity:1;fill:#7e4bab;fill-opacity:1;stroke-width:0.264583"
           d="m 138.79369,101.28097 c 22.15293,-16.731318 48.84065,-28.927851 77.15466,-39.498088 l 1.55592,13.484617 -0.52237,26.011331 z"
           id="path44" /></g><g
         id="g46"
         transform="matrix(1.6009563,0,0,1.0428023,-9.3766664,-31.777189)"><g
           id="g74"><path
             style="fill:#019691;fill-opacity:1;stroke-width:0.264583"
             d="m 4.3400703,101.35493 22.1458987,25.65385 8.070932,-7.63927 -37.1409527,-41.67259 -1.269828,13.968108 z"
             id="path45-0-1-0-2" /><path
             style="fill:#027873;fill-opacity:1;stroke-width:0.264583"
             d="M 3.0502909,114.70412 20.74656,133.81967 26.492725,126.89774 -3.8738311,91.046116 -5.1436591,105.01422 Z"
             id="path45-0-1-0" /><path
             style="fill:#088b89;fill-opacity:1;stroke-width:0.264583"
             d="m 1.7305017,128.44514 13.8886333,15.37694 5.104187,-10.08022 -25.9169422,-28.95472 -1.2698274,13.9681 z"
             id="path45-0-1" /><path
             style="fill:#43acad;fill-opacity:1;stroke-width:0.264583"
             d="m 0.43731177,142.09883 13.20334523,14.51131 1.894152,-13.07385 -22.0216189,-25.09546 -1.2698274,13.9681 z"
             id="path45-0" /><path
             style="opacity:1;fill:#81bec1;fill-opacity:1;stroke-width:0.264583"
             d="m -0.23087771,153.76456 13.56547271,10.96246 0.518068,-8.07649 -21.5870664,-24.58848 -1.2698274,13.9681 z"
             id="path45" /><path
             style="opacity:1;fill:#006474;fill-opacity:1;stroke-width:0.264583"
             d="m -2.9386654,77.874632 0.3673333,-2.755001 14.6014931,2.938666 29.111152,37.467983 -6.611995,3.857 z"
             id="path46" /></g></g><g
         id="g69"><path
           style="opacity:1;fill:#ce7e49;fill-opacity:1;stroke-width:0.264583"
           d="m 11.848563,78.016948 12.182326,15.51995 0.750965,-12.599529 z"
           id="path51" /><path
           style="opacity:1;fill:#d19e5f;fill-opacity:1;stroke-width:0.264583"
           d="m 23.864008,93.453457 5.586286,7.211763 3.232012,-0.0421 1.778657,-32.53553 -3.587946,-2.169457 -6.341485,15.019306 z"
           id="path52" /><path
           style="opacity:1;fill:#ce7c47;fill-opacity:1;stroke-width:0.264583"
           d="M 30.696568,65.865058 41.55918,38.511183 52.348116,50.654785 34.442777,68.252191 Z"
           id="path53" /><path
           style="opacity:1;fill:#d49e61;fill-opacity:1;stroke-width:0.264583"
           d="M 34.351393,68.080103 46.701291,74.203162 61.957044,61.853264 52.149774,50.541173 Z"
           id="path54" /><path
           style="opacity:1;fill:#d5ab71;fill-opacity:1;stroke-width:0.264583"
           d="m 34.33498,68.012263 12.434327,6.19319 -1.194587,26.624727 -13.064027,-0.24917 z"
           id="path55" /><path
           style="opacity:1;fill:#d4b795;fill-opacity:1;stroke-width:0.264583"
           d="m 45.389281,100.62519 15.32283,0.31594 1.000458,-19.219364 -15.112206,-7.635087 z"
           id="path56" /><path
           style="opacity:1;fill:#d6aa74;fill-opacity:1;stroke-width:0.271952"
           d="M 46.179115,74.04064 61.768905,81.91785 73.718088,74.851153 61.954394,61.396636 Z"
           id="path57" /><path
           style="opacity:1;fill:#d7c3b3;fill-opacity:1;stroke-width:0.264583"
           d="m 60.594346,101.01816 0.795945,-19.331195 13.936096,7.575518 -1.495632,11.934697 z"
           id="path58" /><path
           style="opacity:1;fill:#d9bc9a;fill-opacity:1;stroke-width:0.264583"
           d="m 61.327937,81.67244 12.395131,-6.918897 8.06714,9.392036 -6.447824,5.152372 z"
           id="path59" /><path
           style="opacity:1;fill:#d6c6bb;fill-opacity:1;stroke-width:0.264583"
           d="m 73.736022,101.05761 1.505916,-11.939748 14.736447,8.28253 -9.465749,3.818568 z"
           id="path60" /><path
           style="opacity:1;fill:#d7c4b2;fill-opacity:1;stroke-width:0.264583"
           d="M 74.884557,89.08318 81.55049,83.698681 92.89823,96.052707 89.703239,97.650204 74.735676,89.339226 Z"
           id="path61" /></g><g
         id="g68"><path
           style="fill:#313c5a;fill-opacity:1;stroke-width:0.265394"
           d="m 80.77918,71.381187 25.52055,20.36978 -4.61655,11.484773 -30.800607,-1.24898 z"
           id="path67-5" /></g><g
         id="g73"><path
           style="fill:#5f6a88;fill-opacity:1;stroke-width:0.265394"
           d="m 102.03632,77.372637 21.34474,25.367623 -10.92229,0.68542 -24.089501,-25.023166 z"
           id="path67-0" /><path
           style="fill:#b8b7c8;fill-opacity:1;stroke-width:0.265394"
           d="m 92.262309,65.206711 40.749651,37.535929 -9.62612,0.39691 -29.531513,-27.966718 z"
           id="path67-2" /><path
           style="opacity:1;fill:#606a8b;fill-opacity:1;stroke-width:0.264583"
           d="m 91.14857,103.3323 9.82192,0.39643 -2.342424,-20.95514 -17.733527,20.86405 z"
           id="path62" /><path
           style="opacity:1;fill:#b1b0c5;fill-opacity:1;stroke-width:0.264583"
           d="M 76.627759,78.38451 93.776984,58.516503 94.98998,68.764213 71.158808,101.70194 c 0,0 -12.082395,-0.18973 -11.789602,-0.31521 0.292791,-0.12548 -0.206282,-0.45896 -0.206282,-0.45896 z"
           id="path64" /><path
           style="opacity:1;fill:#c3c1cd;fill-opacity:1;stroke-width:0.264583"
           d="m 50.780134,101.0433 10.52869,0.30274 32.593644,-42.662227 -1.380305,-8.741921 z"
           id="path65" /><path
           style="opacity:1;fill:#d0ccd5;fill-opacity:1;stroke-width:0.264583"
           d="m 92.218181,50.02286 73.273489,51.16362 c -0.34155,2.61754 -20.30578,-0.94044 -22.28409,1.42529 L 93.563539,58.706535 Z"
           id="path66" /><path
           style="fill:#767d9a;fill-opacity:1;stroke-width:0.264583"
           d="M 82.964961,102.87514 98.673207,82.954607 97.752287,75.642097 74.120955,102.78413 Z"
           id="path62-4" /><path
           style="opacity:1;fill:#9397b0;fill-opacity:1;stroke-width:0.264583"
           d="M 75.460548,102.0514 96.966409,76.593723 95.640696,67.584287 66.353795,102.22569 Z"
           id="path63" /><path
           style="opacity:1;fill:#c8c4d1;fill-opacity:1;stroke-width:0.265394"
           d="M 93.346716,58.501267 143.24719,102.18227 132.41877,103.04674 94.938734,68.467388 Z"
           id="path67" /><path
           style="fill:#444c61;fill-opacity:1;stroke-width:0.265394"
           d="m 98.551304,83.137785 19.556696,20.296275 -6.48465,0.68542 -10.72071,-0.60491 z"
           id="path67-0-4" /></g></g></g></svg>
